<svg xmlns="http://www.w3.org/2000/svg" width="33" height="33" viewBox="0 0 33 33">
    <g fill="none" fill-rule="nonzero">
        <circle cx="16.5" cy="16.5" r="16.5" fill="#595959"/>
        <path fill="#FFF" d="M22.577 9.293l1.13 1.13a1 1 0 0 1 0 1.414l-11.87 11.87a1 1 0 0 1-1.414 0l-1.13-1.13a1 1 0 0 1 0-1.414l11.87-11.87a1 1 0 0 1 1.414 0z"/>
        <path fill="#FFF" d="M23.707 22.576l-1.13 1.131a1 1 0 0 1-1.414 0l-11.87-11.87a1 1 0 0 1 0-1.413l1.13-1.131a1 1 0 0 1 1.414 0l11.87 11.87a1 1 0 0 1 0 1.413z"/>
    </g>
</svg>
